# xmcd
#
# Track frame offsets: 
#        150
#        14162
#        25422
#        49408
#        67958
#        87429
#        104355
#        124774
#        139706
#        159896
#        173312
#        195132
#
# Disc length: 2974 seconds
#
# Revision: 0
# Processed by: cddbd v1.5.2PL0 Copyright (c) Steve Scherf et al.
# Submitted via: ExactAudioCopy v0.99pb3
#
DISCID=950b9c0c
DTITLE=Cedric Burnside and Lightnin' Malcolm - Juke Joint Duo
DYEAR=2007
DGENRE=Blues
TTITLE0=Juke Joint Duo
TTITLE1=Till They Bury Me
TTITLE2=Let's Come Together
TTITLE3=I Don't Just Sing About The Blues
TTITLE4=Fightnin'
TTITLE5=Thang Under Yo Nose
TTITLE6=Been So Rough
TTITLE7=Make It In The World
TTITLE8=Well I Swear Folks
TTITLE9=That's My Girl
TTITLE10=Fire It Up
TTITLE11=Chitalu
EXTD=
EXTT0=
EXTT1=
EXTT2=
EXTT3=
EXTT4=
EXTT5=
EXTT6=
EXTT7=
EXTT8=
EXTT9=
EXTT10=
EXTT11=
PLAYORDER=
